{
	"asset":{
		"generator":"Khronos glTF Blender I/O v5.0.21",
		"version":"2.0"
	},
	"extensionsUsed":[
		"KHR_materials_unlit"
	],
	"scene":0,
	"scenes":[
		{
			"name":"Scene",
			"nodes":[
				22
			]
		}
	],
	"nodes":[
		{
			"mesh":0,
			"name":"Object_10"
		},
		{
			"mesh":1,
			"name":"Object_11"
		},
		{
			"mesh":2,
			"name":"Object_12"
		},
		{
			"mesh":3,
			"name":"Object_13"
		},
		{
			"mesh":4,
			"name":"Object_14"
		},
		{
			"mesh":5,
			"name":"Object_15"
		},
		{
			"mesh":6,
			"name":"Object_16"
		},
		{
			"mesh":7,
			"name":"Object_17"
		},
		{
			"mesh":8,
			"name":"Object_18"
		},
		{
			"mesh":9,
			"name":"Object_19"
		},
		{
			"mesh":10,
			"name":"Object_2"
		},
		{
			"mesh":11,
			"name":"Object_20"
		},
		{
			"mesh":12,
			"name":"Object_21"
		},
		{
			"mesh":13,
			"name":"Object_22"
		},
		{
			"mesh":14,
			"name":"Object_3"
		},
		{
			"mesh":15,
			"name":"Object_4"
		},
		{
			"mesh":16,
			"name":"Object_5"
		},
		{
			"mesh":17,
			"name":"Object_6"
		},
		{
			"mesh":18,
			"name":"Object_7"
		},
		{
			"mesh":19,
			"name":"Object_8"
		},
		{
			"mesh":20,
			"name":"Object_9"
		},
		{
			"children":[
				0,
				1,
				2,
				3,
				4,
				5,
				6,
				7,
				8,
				9,
				10,
				11,
				12,
				13,
				14,
				15,
				16,
				17,
				18,
				19,
				20
			],
			"name":"KannonzakiBatterySite.obj.cleaner.materialmerger.gles"
		},
		{
			"children":[
				21
			],
			"name":"Sketchfab_model",
			"rotation":[
				-0.70710688829422,
				0,
				0,
				0.7071066498756409
			]
		}
	],
	"materials":[
		{
			"doubleSided":true,
			"extensions":{
				"KHR_materials_unlit":{}
			},
			"name":"KannonzakiBatterySite_u0_v1",
			"pbrMetallicRoughness":{
				"baseColorTexture":{
					"index":0
				},
				"metallicFactor":0,
				"roughnessFactor":0.9
			}
		},
		{
			"doubleSided":true,
			"extensions":{
				"KHR_materials_unlit":{}
			},
			"name":"KannonzakiBatterySite_u1_v0",
			"pbrMetallicRoughness":{
				"baseColorTexture":{
					"index":1
				},
				"metallicFactor":0,
				"roughnessFactor":0.9
			}
		},
		{
			"doubleSided":true,
			"extensions":{
				"KHR_materials_unlit":{}
			},
			"name":"KannonzakiBatterySite_u1_v1",
			"pbrMetallicRoughness":{
				"baseColorTexture":{
					"index":2
				},
				"metallicFactor":0,
				"roughnessFactor":0.9
			}
		},
		{
			"doubleSided":true,
			"extensions":{
				"KHR_materials_unlit":{}
			},
			"name":"KannonzakiBatterySite_u0_v0",
			"pbrMetallicRoughness":{
				"baseColorTexture":{
					"index":3
				},
				"metallicFactor":0,
				"roughnessFactor":0.9
			}
		}
	],
	"meshes":[
		{
			"name":"Object_8",
			"primitives":[
				{
					"attributes":{
						"POSITION":0,
						"NORMAL":1,
						"TEXCOORD_0":2
					},
					"indices":3,
					"material":0
				}
			]
		},
		{
			"name":"Object_9",
			"primitives":[
				{
					"attributes":{
						"POSITION":4,
						"NORMAL":5,
						"TEXCOORD_0":6
					},
					"indices":7,
					"material":0
				}
			]
		},
		{
			"name":"Object_10",
			"primitives":[
				{
					"attributes":{
						"POSITION":8,
						"NORMAL":9,
						"TEXCOORD_0":10
					},
					"indices":11,
					"material":1
				}
			]
		},
		{
			"name":"Object_11",
			"primitives":[
				{
					"attributes":{
						"POSITION":12,
						"NORMAL":13,
						"TEXCOORD_0":14
					},
					"indices":15,
					"material":1
				}
			]
		},
		{
			"name":"Object_12",
			"primitives":[
				{
					"attributes":{
						"POSITION":16,
						"NORMAL":17,
						"TEXCOORD_0":18
					},
					"indices":19,
					"material":1
				}
			]
		},
		{
			"name":"Object_13",
			"primitives":[
				{
					"attributes":{
						"POSITION":20,
						"NORMAL":21,
						"TEXCOORD_0":22
					},
					"indices":23,
					"material":1
				}
			]
		},
		{
			"name":"Object_14",
			"primitives":[
				{
					"attributes":{
						"POSITION":24,
						"NORMAL":25,
						"TEXCOORD_0":26
					},
					"indices":27,
					"material":1
				}
			]
		},
		{
			"name":"Object_15",
			"primitives":[
				{
					"attributes":{
						"POSITION":28,
						"NORMAL":29,
						"TEXCOORD_0":30
					},
					"indices":31,
					"material":2
				}
			]
		},
		{
			"name":"Object_16",
			"primitives":[
				{
					"attributes":{
						"POSITION":32,
						"NORMAL":33,
						"TEXCOORD_0":34
					},
					"indices":35,
					"material":2
				}
			]
		},
		{
			"name":"Object_17",
			"primitives":[
				{
					"attributes":{
						"POSITION":36,
						"NORMAL":37,
						"TEXCOORD_0":38
					},
					"indices":39,
					"material":2
				}
			]
		},
		{
			"name":"Object_0",
			"primitives":[
				{
					"attributes":{
						"POSITION":40,
						"NORMAL":41,
						"TEXCOORD_0":42
					},
					"indices":43,
					"material":3
				}
			]
		},
		{
			"name":"Object_18",
			"primitives":[
				{
					"attributes":{
						"POSITION":44,
						"NORMAL":45,
						"TEXCOORD_0":46
					},
					"indices":47,
					"material":2
				}
			]
		},
		{
			"name":"Object_19",
			"primitives":[
				{
					"attributes":{
						"POSITION":48,
						"NORMAL":49,
						"TEXCOORD_0":50
					},
					"indices":51,
					"material":2
				}
			]
		},
		{
			"name":"Object_20",
			"primitives":[
				{
					"attributes":{
						"POSITION":52,
						"NORMAL":53,
						"TEXCOORD_0":54
					},
					"indices":55,
					"material":2
				}
			]
		},
		{
			"name":"Object_1",
			"primitives":[
				{
					"attributes":{
						"POSITION":56,
						"NORMAL":57,
						"TEXCOORD_0":58
					},
					"indices":59,
					"material":3
				}
			]
		},
		{
			"name":"Object_2",
			"primitives":[
				{
					"attributes":{
						"POSITION":60,
						"NORMAL":61,
						"TEXCOORD_0":62
					},
					"indices":63,
					"material":3
				}
			]
		},
		{
			"name":"Object_3",
			"primitives":[
				{
					"attributes":{
						"POSITION":64,
						"NORMAL":65,
						"TEXCOORD_0":66
					},
					"indices":67,
					"material":3
				}
			]
		},
		{
			"name":"Object_4",
			"primitives":[
				{
					"attributes":{
						"POSITION":68,
						"NORMAL":69,
						"TEXCOORD_0":70
					},
					"indices":71,
					"material":3
				}
			]
		},
		{
			"name":"Object_5",
			"primitives":[
				{
					"attributes":{
						"POSITION":72,
						"NORMAL":73,
						"TEXCOORD_0":74
					},
					"indices":75,
					"material":0
				}
			]
		},
		{
			"name":"Object_6",
			"primitives":[
				{
					"attributes":{
						"POSITION":76,
						"NORMAL":77,
						"TEXCOORD_0":78
					},
					"indices":79,
					"material":0
				}
			]
		},
		{
			"name":"Object_7",
			"primitives":[
				{
					"attributes":{
						"POSITION":80,
						"NORMAL":81,
						"TEXCOORD_0":82
					},
					"indices":83,
					"material":0
				}
			]
		}
	],
	"textures":[
		{
			"sampler":0,
			"source":0
		},
		{
			"sampler":0,
			"source":1
		},
		{
			"sampler":0,
			"source":2
		},
		{
			"sampler":0,
			"source":3
		}
	],
	"images":[
		{
			"mimeType":"image/jpeg",
			"name":"Image_1",
			"uri":"Image_1.jpg"
		},
		{
			"mimeType":"image/jpeg",
			"name":"Image_2",
			"uri":"Image_2.jpg"
		},
		{
			"mimeType":"image/jpeg",
			"name":"Image_3",
			"uri":"Image_3.jpg"
		},
		{
			"mimeType":"image/jpeg",
			"name":"Image_0",
			"uri":"Image_0.jpg"
		}
	],
	"accessors":[
		{
			"bufferView":0,
			"componentType":5126,
			"count":65604,
			"max":[
				78.0893783569336,
				34.80495834350586,
				17.261539459228516
			],
			"min":[
				-64.58908081054688,
				-19.195423126220703,
				-0.04070006683468819
			],
			"type":"VEC3"
		},
		{
			"bufferView":1,
			"componentType":5126,
			"count":65604,
			"type":"VEC3"
		},
		{
			"bufferView":2,
			"componentType":5126,
			"count":65604,
			"type":"VEC2"
		},
		{
			"bufferView":3,
			"componentType":5125,
			"count":139020,
			"type":"SCALAR"
		},
		{
			"bufferView":4,
			"componentType":5126,
			"count":15484,
			"max":[
				79.16315460205078,
				24.873319625854492,
				15.03121566772461
			],
			"min":[
				-46.596134185791016,
				-26.71893882751465,
				-0.11319376528263092
			],
			"type":"VEC3"
		},
		{
			"bufferView":5,
			"componentType":5126,
			"count":15484,
			"type":"VEC3"
		},
		{
			"bufferView":6,
			"componentType":5126,
			"count":15484,
			"type":"VEC2"
		},
		{
			"bufferView":7,
			"componentType":5123,
			"count":30870,
			"type":"SCALAR"
		},
		{
			"bufferView":8,
			"componentType":5126,
			"count":65626,
			"max":[
				79.61298370361328,
				35.818443298339844,
				17.355079650878906
			],
			"min":[
				-65.71967315673828,
				-29.240327835083008,
				-0.5290403962135315
			],
			"type":"VEC3"
		},
		{
			"bufferView":9,
			"componentType":5126,
			"count":65626,
			"type":"VEC3"
		},
		{
			"bufferView":10,
			"componentType":5126,
			"count":65626,
			"type":"VEC2"
		},
		{
			"bufferView":11,
			"componentType":5125,
			"count":157866,
			"type":"SCALAR"
		},
		{
			"bufferView":12,
			"componentType":5126,
			"count":65628,
			"max":[
				79.53096771240234,
				35.72264099121094,
				16.660627365112305
			],
			"min":[
				-65.68620300292969,
				-27.04309844970703,
				-0.12088647484779358
			],
			"type":"VEC3"
		},
		{
			"bufferView":13,
			"componentType":5126,
			"count":65628,
			"type":"VEC3"
		},
		{
			"bufferView":14,
			"componentType":5126,
			"count":65628,
			"type":"VEC2"
		},
		{
			"bufferView":15,
			"componentType":5125,
			"count":179121,
			"type":"SCALAR"
		},
		{
			"bufferView":16,
			"componentType":5126,
			"count":65620,
			"max":[
				75.96720123291016,
				29.995819091796875,
				16.04168701171875
			],
			"min":[
				-52.196250915527344,
				-22.914209365844727,
				-0.04882625490427017
			],
			"type":"VEC3"
		},
		{
			"bufferView":17,
			"componentType":5126,
			"count":65620,
			"type":"VEC3"
		},
		{
			"bufferView":18,
			"componentType":5126,
			"count":65620,
			"type":"VEC2"
		},
		{
			"bufferView":19,
			"componentType":5125,
			"count":152367,
			"type":"SCALAR"
		},
		{
			"bufferView":20,
			"componentType":5126,
			"count":65657,
			"max":[
				79.10818481445312,
				34.773799896240234,
				17.233001708984375
			],
			"min":[
				-64.56861877441406,
				-27.463733673095703,
				-0.09163417667150497
			],
			"type":"VEC3"
		},
		{
			"bufferView":21,
			"componentType":5126,
			"count":65657,
			"type":"VEC3"
		},
		{
			"bufferView":22,
			"componentType":5126,
			"count":65657,
			"type":"VEC2"
		},
		{
			"bufferView":23,
			"componentType":5125,
			"count":141738,
			"type":"SCALAR"
		},
		{
			"bufferView":24,
			"componentType":5126,
			"count":8367,
			"max":[
				78.55675506591797,
				6.790995121002197,
				8.169295310974121
			],
			"min":[
				-40.680999755859375,
				-19.65558624267578,
				-0.02529180608689785
			],
			"type":"VEC3"
		},
		{
			"bufferView":25,
			"componentType":5126,
			"count":8367,
			"type":"VEC3"
		},
		{
			"bufferView":26,
			"componentType":5126,
			"count":8367,
			"type":"VEC2"
		},
		{
			"bufferView":27,
			"componentType":5123,
			"count":16248,
			"type":"SCALAR"
		},
		{
			"bufferView":28,
			"componentType":5126,
			"count":65603,
			"max":[
				80.03826141357422,
				34.70814514160156,
				17.354312896728516
			],
			"min":[
				-65.8418960571289,
				-29.419734954833984,
				-0.5264737606048584
			],
			"type":"VEC3"
		},
		{
			"bufferView":29,
			"componentType":5126,
			"count":65603,
			"type":"VEC3"
		},
		{
			"bufferView":30,
			"componentType":5126,
			"count":65603,
			"type":"VEC2"
		},
		{
			"bufferView":31,
			"componentType":5125,
			"count":114867,
			"type":"SCALAR"
		},
		{
			"bufferView":32,
			"componentType":5126,
			"count":65624,
			"max":[
				72.57949829101562,
				35.650909423828125,
				16.21263313293457
			],
			"min":[
				-65.70356750488281,
				-26.614765167236328,
				-0.17045289278030396
			],
			"type":"VEC3"
		},
		{
			"bufferView":33,
			"componentType":5126,
			"count":65624,
			"type":"VEC3"
		},
		{
			"bufferView":34,
			"componentType":5126,
			"count":65624,
			"type":"VEC2"
		},
		{
			"bufferView":35,
			"componentType":5125,
			"count":118680,
			"type":"SCALAR"
		},
		{
			"bufferView":36,
			"componentType":5126,
			"count":65610,
			"max":[
				79.24522399902344,
				30.19157600402832,
				15.408021926879883
			],
			"min":[
				-51.53657913208008,
				-26.765352249145508,
				-0.12088647484779358
			],
			"type":"VEC3"
		},
		{
			"bufferView":37,
			"componentType":5126,
			"count":65610,
			"type":"VEC3"
		},
		{
			"bufferView":38,
			"componentType":5126,
			"count":65610,
			"type":"VEC2"
		},
		{
			"bufferView":39,
			"componentType":5125,
			"count":114870,
			"type":"SCALAR"
		},
		{
			"bufferView":40,
			"componentType":5126,
			"count":65661,
			"max":[
				80.03826141357422,
				35.57987594604492,
				17.354022979736328
			],
			"min":[
				-65.8418960571289,
				-29.419734954833984,
				-0.5285056829452515
			],
			"type":"VEC3"
		},
		{
			"bufferView":41,
			"componentType":5126,
			"count":65661,
			"type":"VEC3"
		},
		{
			"bufferView":42,
			"componentType":5126,
			"count":65661,
			"type":"VEC2"
		},
		{
			"bufferView":43,
			"componentType":5125,
			"count":162159,
			"type":"SCALAR"
		},
		{
			"bufferView":44,
			"componentType":5126,
			"count":65620,
			"max":[
				75.39966583251953,
				30.000499725341797,
				16.538644790649414
			],
			"min":[
				-61.26967239379883,
				-22.899009704589844,
				-0.08126584440469742
			],
			"type":"VEC3"
		},
		{
			"bufferView":45,
			"componentType":5126,
			"count":65620,
			"type":"VEC3"
		},
		{
			"bufferView":46,
			"componentType":5126,
			"count":65620,
			"type":"VEC2"
		},
		{
			"bufferView":47,
			"componentType":5125,
			"count":111447,
			"type":"SCALAR"
		},
		{
			"bufferView":48,
			"componentType":5126,
			"count":65627,
			"max":[
				79.16358947753906,
				30.63001823425293,
				17.173128128051758
			],
			"min":[
				-64.61680603027344,
				-28.22647476196289,
				-0.20398131012916565
			],
			"type":"VEC3"
		},
		{
			"bufferView":49,
			"componentType":5126,
			"count":65627,
			"type":"VEC3"
		},
		{
			"bufferView":50,
			"componentType":5126,
			"count":65627,
			"type":"VEC2"
		},
		{
			"bufferView":51,
			"componentType":5125,
			"count":116439,
			"type":"SCALAR"
		},
		{
			"bufferView":52,
			"componentType":5126,
			"count":44267,
			"max":[
				78.50611877441406,
				34.01633834838867,
				17.17848777770996
			],
			"min":[
				-46.232139587402344,
				-19.281700134277344,
				-0.0321466401219368
			],
			"type":"VEC3"
		},
		{
			"bufferView":53,
			"componentType":5126,
			"count":44267,
			"type":"VEC3"
		},
		{
			"bufferView":54,
			"componentType":5126,
			"count":44267,
			"type":"VEC2"
		},
		{
			"bufferView":55,
			"componentType":5123,
			"count":79782,
			"type":"SCALAR"
		},
		{
			"bufferView":56,
			"componentType":5126,
			"count":65639,
			"max":[
				79.74787139892578,
				35.635948181152344,
				16.534570693969727
			],
			"min":[
				-65.65972900390625,
				-27.386825561523438,
				-0.13266676664352417
			],
			"type":"VEC3"
		},
		{
			"bufferView":57,
			"componentType":5126,
			"count":65639,
			"type":"VEC3"
		},
		{
			"bufferView":58,
			"componentType":5126,
			"count":65639,
			"type":"VEC2"
		},
		{
			"bufferView":59,
			"componentType":5125,
			"count":167928,
			"type":"SCALAR"
		},
		{
			"bufferView":60,
			"componentType":5126,
			"count":65697,
			"max":[
				78.46849822998047,
				34.63347625732422,
				15.671067237854004
			],
			"min":[
				-50.43743896484375,
				-19.921043395996094,
				-0.04070006683468819
			],
			"type":"VEC3"
		},
		{
			"bufferView":61,
			"componentType":5126,
			"count":65697,
			"type":"VEC3"
		},
		{
			"bufferView":62,
			"componentType":5126,
			"count":65697,
			"type":"VEC2"
		},
		{
			"bufferView":63,
			"componentType":5125,
			"count":168405,
			"type":"SCALAR"
		},
		{
			"bufferView":64,
			"componentType":5126,
			"count":65678,
			"max":[
				78.1893539428711,
				30.034440994262695,
				16.445566177368164
			],
			"min":[
				-61.15144348144531,
				-23.059154510498047,
				-0.08126584440469742
			],
			"type":"VEC3"
		},
		{
			"bufferView":65,
			"componentType":5126,
			"count":65678,
			"type":"VEC3"
		},
		{
			"bufferView":66,
			"componentType":5126,
			"count":65678,
			"type":"VEC2"
		},
		{
			"bufferView":67,
			"componentType":5125,
			"count":132603,
			"type":"SCALAR"
		},
		{
			"bufferView":68,
			"componentType":5126,
			"count":60941,
			"max":[
				79.23855590820312,
				30.649669647216797,
				17.261539459228516
			],
			"min":[
				-64.6143569946289,
				-27.55728530883789,
				-0.11572378873825073
			],
			"type":"VEC3"
		},
		{
			"bufferView":69,
			"componentType":5126,
			"count":60941,
			"type":"VEC3"
		},
		{
			"bufferView":70,
			"componentType":5126,
			"count":60941,
			"type":"VEC2"
		},
		{
			"bufferView":71,
			"componentType":5123,
			"count":123996,
			"type":"SCALAR"
		},
		{
			"bufferView":72,
			"componentType":5126,
			"count":65679,
			"max":[
				79.20247650146484,
				35.6142578125,
				17.355079650878906
			],
			"min":[
				-65.8418960571289,
				-29.39788818359375,
				-0.5290403962135315
			],
			"type":"VEC3"
		},
		{
			"bufferView":73,
			"componentType":5126,
			"count":65679,
			"type":"VEC3"
		},
		{
			"bufferView":74,
			"componentType":5126,
			"count":65679,
			"type":"VEC2"
		},
		{
			"bufferView":75,
			"componentType":5125,
			"count":148503,
			"type":"SCALAR"
		},
		{
			"bufferView":76,
			"componentType":5126,
			"count":65616,
			"max":[
				78.74113464355469,
				35.635948181152344,
				16.660627365112305
			],
			"min":[
				-65.70356750488281,
				-28.354753494262695,
				-0.24914905428886414
			],
			"type":"VEC3"
		},
		{
			"bufferView":77,
			"componentType":5126,
			"count":65616,
			"type":"VEC3"
		},
		{
			"bufferView":78,
			"componentType":5126,
			"count":65616,
			"type":"VEC2"
		},
		{
			"bufferView":79,
			"componentType":5125,
			"count":145977,
			"type":"SCALAR"
		},
		{
			"bufferView":80,
			"componentType":5126,
			"count":65600,
			"max":[
				79.14057922363281,
				29.995819091796875,
				16.456266403198242
			],
			"min":[
				-46.17089080810547,
				-23.062536239624023,
				-0.04986371845006943
			],
			"type":"VEC3"
		},
		{
			"bufferView":81,
			"componentType":5126,
			"count":65600,
			"type":"VEC3"
		},
		{
			"bufferView":82,
			"componentType":5126,
			"count":65600,
			"type":"VEC2"
		},
		{
			"bufferView":83,
			"componentType":5125,
			"count":129399,
			"type":"SCALAR"
		}
	],
	"bufferViews":[
		{
			"buffer":0,
			"byteLength":787248,
			"byteOffset":0,
			"target":34962
		},
		{
			"buffer":0,
			"byteLength":787248,
			"byteOffset":787248,
			"target":34962
		},
		{
			"buffer":0,
			"byteLength":524832,
			"byteOffset":1574496,
			"target":34962
		},
		{
			"buffer":0,
			"byteLength":556080,
			"byteOffset":2099328,
			"target":34963
		},
		{
			"buffer":0,
			"byteLength":185808,
			"byteOffset":2655408,
			"target":34962
		},
		{
			"buffer":0,
			"byteLength":185808,
			"byteOffset":2841216,
			"target":34962
		},
		{
			"buffer":0,
			"byteLength":123872,
			"byteOffset":3027024,
			"target":34962
		},
		{
			"buffer":0,
			"byteLength":61740,
			"byteOffset":3150896,
			"target":34963
		},
		{
			"buffer":0,
			"byteLength":787512,
			"byteOffset":3212636,
			"target":34962
		},
		{
			"buffer":0,
			"byteLength":787512,
			"byteOffset":4000148,
			"target":34962
		},
		{
			"buffer":0,
			"byteLength":525008,
			"byteOffset":4787660,
			"target":34962
		},
		{
			"buffer":0,
			"byteLength":631464,
			"byteOffset":5312668,
			"target":34963
		},
		{
			"buffer":0,
			"byteLength":787536,
			"byteOffset":5944132,
			"target":34962
		},
		{
			"buffer":0,
			"byteLength":787536,
			"byteOffset":6731668,
			"target":34962
		},
		{
			"buffer":0,
			"byteLength":525024,
			"byteOffset":7519204,
			"target":34962
		},
		{
			"buffer":0,
			"byteLength":716484,
			"byteOffset":8044228,
			"target":34963
		},
		{
			"buffer":0,
			"byteLength":787440,
			"byteOffset":8760712,
			"target":34962
		},
		{
			"buffer":0,
			"byteLength":787440,
			"byteOffset":9548152,
			"target":34962
		},
		{
			"buffer":0,
			"byteLength":524960,
			"byteOffset":10335592,
			"target":34962
		},
		{
			"buffer":0,
			"byteLength":609468,
			"byteOffset":10860552,
			"target":34963
		},
		{
			"buffer":0,
			"byteLength":787884,
			"byteOffset":11470020,
			"target":34962
		},
		{
			"buffer":0,
			"byteLength":787884,
			"byteOffset":12257904,
			"target":34962
		},
		{
			"buffer":0,
			"byteLength":525256,
			"byteOffset":13045788,
			"target":34962
		},
		{
			"buffer":0,
			"byteLength":566952,
			"byteOffset":13571044,
			"target":34963
		},
		{
			"buffer":0,
			"byteLength":100404,
			"byteOffset":14137996,
			"target":34962
		},
		{
			"buffer":0,
			"byteLength":100404,
			"byteOffset":14238400,
			"target":34962
		},
		{
			"buffer":0,
			"byteLength":66936,
			"byteOffset":14338804,
			"target":34962
		},
		{
			"buffer":0,
			"byteLength":32496,
			"byteOffset":14405740,
			"target":34963
		},
		{
			"buffer":0,
			"byteLength":787236,
			"byteOffset":14438236,
			"target":34962
		},
		{
			"buffer":0,
			"byteLength":787236,
			"byteOffset":15225472,
			"target":34962
		},
		{
			"buffer":0,
			"byteLength":524824,
			"byteOffset":16012708,
			"target":34962
		},
		{
			"buffer":0,
			"byteLength":459468,
			"byteOffset":16537532,
			"target":34963
		},
		{
			"buffer":0,
			"byteLength":787488,
			"byteOffset":16997000,
			"target":34962
		},
		{
			"buffer":0,
			"byteLength":787488,
			"byteOffset":17784488,
			"target":34962
		},
		{
			"buffer":0,
			"byteLength":524992,
			"byteOffset":18571976,
			"target":34962
		},
		{
			"buffer":0,
			"byteLength":474720,
			"byteOffset":19096968,
			"target":34963
		},
		{
			"buffer":0,
			"byteLength":787320,
			"byteOffset":19571688,
			"target":34962
		},
		{
			"buffer":0,
			"byteLength":787320,
			"byteOffset":20359008,
			"target":34962
		},
		{
			"buffer":0,
			"byteLength":524880,
			"byteOffset":21146328,
			"target":34962
		},
		{
			"buffer":0,
			"byteLength":459480,
			"byteOffset":21671208,
			"target":34963
		},
		{
			"buffer":0,
			"byteLength":787932,
			"byteOffset":22130688,
			"target":34962
		},
		{
			"buffer":0,
			"byteLength":787932,
			"byteOffset":22918620,
			"target":34962
		},
		{
			"buffer":0,
			"byteLength":525288,
			"byteOffset":23706552,
			"target":34962
		},
		{
			"buffer":0,
			"byteLength":648636,
			"byteOffset":24231840,
			"target":34963
		},
		{
			"buffer":0,
			"byteLength":787440,
			"byteOffset":24880476,
			"target":34962
		},
		{
			"buffer":0,
			"byteLength":787440,
			"byteOffset":25667916,
			"target":34962
		},
		{
			"buffer":0,
			"byteLength":524960,
			"byteOffset":26455356,
			"target":34962
		},
		{
			"buffer":0,
			"byteLength":445788,
			"byteOffset":26980316,
			"target":34963
		},
		{
			"buffer":0,
			"byteLength":787524,
			"byteOffset":27426104,
			"target":34962
		},
		{
			"buffer":0,
			"byteLength":787524,
			"byteOffset":28213628,
			"target":34962
		},
		{
			"buffer":0,
			"byteLength":525016,
			"byteOffset":29001152,
			"target":34962
		},
		{
			"buffer":0,
			"byteLength":465756,
			"byteOffset":29526168,
			"target":34963
		},
		{
			"buffer":0,
			"byteLength":531204,
			"byteOffset":29991924,
			"target":34962
		},
		{
			"buffer":0,
			"byteLength":531204,
			"byteOffset":30523128,
			"target":34962
		},
		{
			"buffer":0,
			"byteLength":354136,
			"byteOffset":31054332,
			"target":34962
		},
		{
			"buffer":0,
			"byteLength":159564,
			"byteOffset":31408468,
			"target":34963
		},
		{
			"buffer":0,
			"byteLength":787668,
			"byteOffset":31568032,
			"target":34962
		},
		{
			"buffer":0,
			"byteLength":787668,
			"byteOffset":32355700,
			"target":34962
		},
		{
			"buffer":0,
			"byteLength":525112,
			"byteOffset":33143368,
			"target":34962
		},
		{
			"buffer":0,
			"byteLength":671712,
			"byteOffset":33668480,
			"target":34963
		},
		{
			"buffer":0,
			"byteLength":788364,
			"byteOffset":34340192,
			"target":34962
		},
		{
			"buffer":0,
			"byteLength":788364,
			"byteOffset":35128556,
			"target":34962
		},
		{
			"buffer":0,
			"byteLength":525576,
			"byteOffset":35916920,
			"target":34962
		},
		{
			"buffer":0,
			"byteLength":673620,
			"byteOffset":36442496,
			"target":34963
		},
		{
			"buffer":0,
			"byteLength":788136,
			"byteOffset":37116116,
			"target":34962
		},
		{
			"buffer":0,
			"byteLength":788136,
			"byteOffset":37904252,
			"target":34962
		},
		{
			"buffer":0,
			"byteLength":525424,
			"byteOffset":38692388,
			"target":34962
		},
		{
			"buffer":0,
			"byteLength":530412,
			"byteOffset":39217812,
			"target":34963
		},
		{
			"buffer":0,
			"byteLength":731292,
			"byteOffset":39748224,
			"target":34962
		},
		{
			"buffer":0,
			"byteLength":731292,
			"byteOffset":40479516,
			"target":34962
		},
		{
			"buffer":0,
			"byteLength":487528,
			"byteOffset":41210808,
			"target":34962
		},
		{
			"buffer":0,
			"byteLength":247992,
			"byteOffset":41698336,
			"target":34963
		},
		{
			"buffer":0,
			"byteLength":788148,
			"byteOffset":41946328,
			"target":34962
		},
		{
			"buffer":0,
			"byteLength":788148,
			"byteOffset":42734476,
			"target":34962
		},
		{
			"buffer":0,
			"byteLength":525432,
			"byteOffset":43522624,
			"target":34962
		},
		{
			"buffer":0,
			"byteLength":594012,
			"byteOffset":44048056,
			"target":34963
		},
		{
			"buffer":0,
			"byteLength":787392,
			"byteOffset":44642068,
			"target":34962
		},
		{
			"buffer":0,
			"byteLength":787392,
			"byteOffset":45429460,
			"target":34962
		},
		{
			"buffer":0,
			"byteLength":524928,
			"byteOffset":46216852,
			"target":34962
		},
		{
			"buffer":0,
			"byteLength":583908,
			"byteOffset":46741780,
			"target":34963
		},
		{
			"buffer":0,
			"byteLength":787200,
			"byteOffset":47325688,
			"target":34962
		},
		{
			"buffer":0,
			"byteLength":787200,
			"byteOffset":48112888,
			"target":34962
		},
		{
			"buffer":0,
			"byteLength":524800,
			"byteOffset":48900088,
			"target":34962
		},
		{
			"buffer":0,
			"byteLength":517596,
			"byteOffset":49424888,
			"target":34963
		}
	],
	"samplers":[
		{
			"magFilter":9729,
			"minFilter":9987
		}
	],
	"buffers":[
		{
			"byteLength":49942484,
			"uri":"environment.bin"
		}
	]
}
